<svg width="140" height="140" viewBox="0 0 140 140" fill="none" xmlns="http://www.w3.org/2000/svg">
<path d="M8.75 17.5H122.5V122.5H8.75V17.5ZM52.5 70V87.5H78.75V70H52.5ZM78.75 61.25V43.75H52.5V61.25H78.75ZM43.75 61.25V43.75H17.5V61.25H43.75ZM17.5 70V87.5H43.75V70H17.5ZM43.75 113.75V96.25H17.5V113.75H43.75ZM78.75 113.75V96.25H52.5V113.75H78.75ZM113.75 113.75V96.25H87.5V113.75H113.75ZM113.75 87.5V70H87.5V87.5H113.75ZM113.75 61.25V43.75H87.5V61.25H113.75ZM17.5 35H113.75V26.25H17.5V35Z" fill="#484848"/>
<circle cx="107.5" cy="106.5" r="30.5" fill="#484848" stroke="white" stroke-width="4"/>
<path d="M123.616 101.039H113.036L122.55 89.5944C122.747 89.3521 122.569 89 122.248 89H103.829C103.694 89 103.564 89.0686 103.497 89.1829L91.0529 109.644C90.904 109.886 91.0866 110.193 91.3843 110.193H99.7606L95.4668 126.543C95.3755 126.9 95.827 127.151 96.1056 126.895L123.881 101.665C124.13 101.441 123.962 101.039 123.616 101.039ZM101.053 118.103L103.949 107.084H96.3889L105.495 92.1138H116.282L106.278 104.153H116.412L101.053 118.103Z" fill="white"/>
</svg>
