<svg width="140" height="140" viewBox="0 0 140 140" fill="none" xmlns="http://www.w3.org/2000/svg">
<path d="M70 16.3334C40.405 16.3334 16.3333 40.405 16.3333 70C16.3333 99.5951 40.405 123.667 70 123.667C99.595 123.667 123.667 99.5951 123.667 70C123.667 40.405 99.595 16.3334 70 16.3334ZM72.6898 23.9304C86.4477 24.7172 98.5625 31.5006 106.485 41.7134C104.394 41.6597 102.313 41.6469 100.24 41.678C96.6423 41.7376 93.0478 41.9281 89.4638 42.249C88.8048 40.8886 87.776 39.7413 86.4953 38.9384C85.2146 38.1355 83.7336 37.7093 82.222 37.7088C81.8475 37.7089 81.4734 37.735 81.1025 37.7872C78.5818 33.002 75.7723 28.3745 72.6898 23.9304ZM66.166 24.0163C70.0698 29.3497 73.454 34.7636 76.3498 40.2526C75.2726 41.4016 74.5561 42.8413 74.289 44.3935C69.2819 45.3692 64.3275 46.5979 59.4448 48.0751C58.8373 47.2536 58.0789 46.5553 57.2101 46.0175C59.2355 38.7886 62.0691 31.4642 65.6916 24.0517C65.8494 24.0378 66.0083 24.0302 66.166 24.0163ZM59.2538 25.1132C56.227 31.7303 53.812 38.3228 52.0152 44.8733C50.9283 45.0037 49.8794 45.3544 48.9327 45.904C47.9859 46.4536 47.1612 47.1905 46.509 48.0697C41.6662 46.5251 36.7611 45.183 31.8065 44.0468C38.273 34.5323 48.0629 27.779 59.2538 25.1132ZM103.392 47.0286C105.638 47.0425 107.894 47.1144 110.162 47.2325C112.873 52.0072 114.704 57.2299 115.568 62.652C109.075 63.7082 102.753 65.1711 96.5983 67.0151C95.9338 66.1924 95.1138 65.5086 94.1851 65.0029C93.2563 64.4972 92.237 64.1794 91.1854 64.0677C90.1511 59.949 88.8909 55.8903 87.4105 51.9101C88.7417 50.787 89.6727 49.2624 90.0638 47.5652C94.4634 47.1831 98.9038 46.9996 103.392 47.0286ZM28.9257 48.9198C34.4018 50.1251 39.7449 51.5344 44.9323 53.1906C44.9326 53.2013 44.933 53.212 44.9334 53.2228C37.9481 56.0918 31.0798 59.4749 24.3264 63.3518C25.0488 58.3194 26.6031 53.4422 28.9257 48.9198ZM75.1799 49.6539C75.8757 50.9119 76.8957 51.9607 78.1339 52.6911C79.3721 53.4216 80.7833 53.8072 82.221 53.8077C82.2933 53.8069 82.3655 53.8051 82.4378 53.8024C83.841 57.5599 85.0363 61.3917 86.0184 65.2806C85.6152 65.5362 85.2355 65.8271 84.8839 66.15C77.3149 61.2168 69.3243 56.9631 61.0054 53.4385C61.012 53.347 61.017 53.2554 61.0205 53.1637C65.6787 51.7569 70.4038 50.5855 75.1799 49.6539ZM46.9298 58.1773C47.5216 58.8504 48.2218 59.4199 49.0013 59.8624C47.6789 70.2104 47.972 80.4135 49.9898 90.3944C45.2344 93.8719 40.6529 97.5812 36.2619 101.509C28.5607 93.2667 23.8466 82.1995 23.8466 70C23.8466 69.9496 23.8509 69.9013 23.8509 69.8508C31.4147 65.3064 39.103 61.4026 46.9298 58.1773ZM58.8663 58.3479C67.066 61.813 74.9344 66.0152 82.3744 70.9027C82.3167 71.29 82.2873 71.681 82.2864 72.0727C82.2864 72.0895 82.2864 72.1063 82.2864 72.1231C72.6694 76.1213 63.4881 81.1176 54.7318 87.0575C53.2184 78.4729 53.0574 69.7231 54.1876 60.8209C55.9813 60.5474 57.63 59.676 58.8663 58.3479ZM116.103 68.0015C116.131 68.6637 116.153 69.3292 116.153 69.999C116.16 76.5359 114.776 82.9996 112.093 88.9605C107.575 84.15 102.746 79.6423 97.6362 75.4665C98.1285 74.4084 98.3849 73.2558 98.3875 72.0887C104.201 70.3563 110.118 68.9912 116.103 68.0015ZM84.0982 77.156C85.2567 78.578 86.8661 79.5618 88.6599 79.9445C89.8341 90.5801 89.4756 101.482 87.6595 112.66C82.0596 114.973 76.0588 116.16 70 116.153C68.4147 116.153 66.8476 116.074 65.3041 115.918C60.9979 108.336 57.8885 100.602 55.935 92.7268C64.8737 86.4768 74.2493 81.2679 84.0982 77.156ZM93.9525 79.367C99.4682 83.8615 104.648 88.7535 109.449 94.0041C105.506 100.474 100.033 105.876 93.5124 109.735C94.8917 99.4287 95.058 89.2954 93.9525 79.3692V79.367ZM51.3304 96.0627C53.037 102.388 55.4456 108.618 58.5786 114.731C51.7945 113.006 45.4941 109.754 40.1581 105.224C43.8042 101.982 47.5276 98.9232 51.3304 96.0627Z" fill="#484848"/>
</svg>
