<svg width="140" height="140" viewBox="0 0 140 140" fill="none" xmlns="http://www.w3.org/2000/svg">
<path d="M37.912 32.97C45.9028 26.0221 55.9371 21.8624 66.5 21.119V31.5C66.5 32.4283 66.8687 33.3185 67.5251 33.9749C68.1815 34.6313 69.0717 35 70 35C70.9283 35 71.8185 34.6313 72.4749 33.9749C73.1313 33.3185 73.5 32.4283 73.5 31.5V21.126C84.6532 21.9256 95.1979 26.5142 103.385 34.1307C111.571 41.7471 116.908 51.9335 118.51 63H105C104.072 63 103.182 63.3687 102.525 64.0251C101.869 64.6815 101.5 65.5717 101.5 66.5C101.5 67.4283 101.869 68.3185 102.525 68.9749C103.182 69.6313 104.072 70 105 70H119C118.992 76.7638 117.616 83.4562 114.957 89.6752C112.297 95.8942 108.408 101.512 103.523 106.19C102.88 106.834 102.513 107.703 102.5 108.614C102.487 109.524 102.829 110.403 103.454 111.065C104.078 111.728 104.937 112.12 105.846 112.16C106.756 112.2 107.645 111.884 108.325 111.279C113.904 105.947 118.346 99.5409 121.383 92.4468C124.421 85.3526 125.991 77.7171 126 70C126 55.1479 120.1 40.9041 109.598 30.402C99.0959 19.9 84.8521 14 70 14C55.1479 14 40.9041 19.9 30.402 30.402C19.9 40.9041 14 55.1479 14 70C14 86.065 21.14 101.08 31.941 111.279C32.2756 111.594 32.669 111.841 33.0988 112.004C33.5286 112.167 33.9864 112.244 34.4459 112.23C34.9055 112.217 35.3579 112.113 35.7772 111.924C36.1966 111.736 36.5747 111.467 36.89 111.132C37.2053 110.797 37.4516 110.404 37.6149 109.974C37.7781 109.544 37.8551 109.087 37.8415 108.627C37.8278 108.167 37.7238 107.715 37.5353 107.296C37.3468 106.876 37.0776 106.498 36.743 106.183C27.265 97.23 21 84.021 21 70H35C35.9283 70 36.8185 69.6313 37.4749 68.9749C38.1313 68.3185 38.5 67.4283 38.5 66.5C38.5 65.5717 38.1313 64.6815 37.4749 64.0251C36.8185 63.3687 35.9283 63 35 63H21.49C22.8253 53.7097 26.8112 45.0015 32.97 37.919L43.022 47.978C43.6792 48.6352 44.5706 49.0044 45.5 49.0044C46.4294 49.0044 47.3208 48.6352 47.978 47.978C48.6352 47.3208 49.0044 46.4294 49.0044 45.5C49.0044 44.5706 48.6352 43.6792 47.978 43.022L37.912 32.97ZM94.143 40.649C94.7791 40.1438 95.5711 39.8756 96.3833 39.8903C97.1955 39.9051 97.9772 40.2019 98.5946 40.7298C99.2119 41.2578 99.6264 41.9841 99.767 42.7841C99.9075 43.5842 99.7654 44.4082 99.365 45.115L98.595 46.487C95.78 51.4577 92.9473 56.4184 90.097 61.369C87.8183 65.3306 85.5082 69.274 83.167 73.199C82.2896 74.6756 81.3936 76.1411 80.479 77.595C79.779 78.694 79.093 79.737 78.589 80.325C76.7808 82.4433 74.2051 83.7565 71.4286 83.9757C68.6521 84.1949 65.9023 83.3022 63.784 81.494C61.6657 79.6858 60.3525 77.1101 60.1333 74.3336C59.9141 71.5571 60.8068 68.8073 62.615 66.689C63.119 66.101 64.036 65.254 65.016 64.393C66.066 63.462 67.417 62.321 68.936 61.04C71.988 58.492 75.81 55.37 79.534 52.36C83.9758 48.7669 88.4325 45.1922 92.904 41.636L94.143 40.649Z" fill="#484848"/>
</svg>
